HIERARCHY
ROOT SpineBase
{
  OFFSET 0.000000 0.000000 0.000000
  CHANNELS 6 Xposition Yposition Zposition Zrotation Xrotation Yrotation
  JOINT SpineMid
  {
    OFFSET 0.000000 32.790243 0.000000
    CHANNELS 3 Zrotation Xrotation Yrotation
    JOINT SpineShoulder
    {
      OFFSET 0.018874 24.397335 -0.832055
      CHANNELS 3 Zrotation Xrotation Yrotation
      JOINT Neck
      {
        OFFSET 0.034412 8.086332 -0.617293
        CHANNELS 3 Zrotation Xrotation Yrotation
        JOINT Head
        {
          OFFSET 4.662533 12.365843 5.852269
          CHANNELS 3 Zrotation Xrotation Yrotation
          End Site
          {
            OFFSET 0 0 0
          }
        }
      }
      JOINT ShoulderLeft
      {
        OFFSET -10.096000 -2.325904 -12.293711
        CHANNELS 3 Zrotation Xrotation Yrotation
        JOINT ElbowLeft
        {
          OFFSET -6.546106 -24.772769 -8.138925
          CHANNELS 3 Zrotation Xrotation Yrotation
          JOINT WristLeft
          {
            OFFSET 4.403062 -20.406072 -6.129799
            CHANNELS 3 Zrotation Xrotation Yrotation
            JOINT HandLeft
            {
              OFFSET 1.198807 -8.818341 -0.004219
              CHANNELS 3 Zrotation Xrotation Yrotation
              JOINT HandTipLeft
              {
                OFFSET 1.730072 -8.233342 -0.172139
                CHANNELS 3 Zrotation Xrotation Yrotation
                End Site
                {
                  OFFSET 0 0 0
                }
              }
              JOINT ThumbLeft
              {
                OFFSET 4.198485 1.980641 7.453333
                CHANNELS 3 Zrotation Xrotation Yrotation
                End Site
                {
                  OFFSET 0 0 0
                }
              }
            }
          }
        }
      }
      JOINT ShoulderRight
      {
        OFFSET 10.634438 -4.195108 12.245227
        CHANNELS 3 Zrotation Xrotation Yrotation
        JOINT ElbowRight
        {
          OFFSET 1.743196 -25.905502 3.066143
          CHANNELS 3 Zrotation Xrotation Yrotation
          JOINT WristRight
          {
            OFFSET 2.688759 -26.178859 -1.909718
            CHANNELS 3 Zrotation Xrotation Yrotation
            JOINT HandRight
            {
              OFFSET -1.032177 -8.988289 -1.350323
              CHANNELS 3 Zrotation Xrotation Yrotation
              JOINT HandTipRight
              {
                OFFSET 0.286549 -7.052088 -0.931804
                CHANNELS 3 Zrotation Xrotation Yrotation
                End Site
                {
                  OFFSET 0 0 0
                }
              }
              JOINT ThumbRight
              {
                OFFSET 2.656398 0.222408 -2.840307
                CHANNELS 3 Zrotation Xrotation Yrotation
                End Site
                {
                  OFFSET 0 0 0
                }
              }
            }
          }
        }
      }
    }
  }
  JOINT HipLeft
  {
    OFFSET -4.582782 1.927125 -8.692540
    CHANNELS 3 Zrotation Xrotation Yrotation
    JOINT KneeLeft
    {
      OFFSET -11.576981 -34.061187 -4.596625
      CHANNELS 3 Zrotation Xrotation Yrotation
      JOINT AnkleLeft
      {
        OFFSET -7.652117 -37.654310 3.027967
        CHANNELS 3 Zrotation Xrotation Yrotation
        JOINT FootLeft
        {
          OFFSET 1.272352 -7.398785 -7.057252
          CHANNELS 3 Zrotation Xrotation Yrotation
          End Site
          {
            OFFSET 0 0 0
          }
        }
      }
    }
  }
  JOINT HipRight
  {
    OFFSET 5.338787 0.129386 1.555959
    CHANNELS 3 Zrotation Xrotation Yrotation
    JOINT KneeRight
    {
      OFFSET -2.992215 -36.926193 -0.345365
      CHANNELS 3 Zrotation Xrotation Yrotation
      JOINT AnkleRight
      {
        OFFSET -9.224040 -37.552015 11.983901
        CHANNELS 3 Zrotation Xrotation Yrotation
        JOINT FootRight
        {
          OFFSET 1.930824 -7.988950 -4.887075
          CHANNELS 3 Zrotation Xrotation Yrotation
          End Site
          {
            OFFSET 0 0 0
          }
        }
      }
    }
  }
}
MOTION
Frames: 5
Frame Time: 0.033333
-35.752452 82.352669 342.345568 -0.000000 0.000000 -45.928607 -0.000000 0.000000 45.928607 -0.000000 0.000000 0.000000 -0.000000 0.000000 0.000000 0.000000 0.000000 0.000000 -0.000000 0.000000 0.000000 -0.000000 0.000000 0.000000 -0.000000 0.000000 0.000000 -0.000000 0.000000 0.000000 0.000000 0.000000 0.000000 0.000000 0.000000 0.000000 -0.000000 0.000000 0.000000 -0.000000 0.000000 0.000000 -0.000000 0.000000 0.000000 -0.000000 0.000000 0.000000 0.000000 0.000000 0.000000 0.000000 0.000000 0.000000 -0.000000 0.000000 45.928607 -0.000000 0.000000 0.000000 -0.000000 0.000000 0.000000 0.000000 0.000000 0.000000 -0.000000 0.000000 45.928607 -0.000000 0.000000 0.000000 -0.000000 0.000000 0.000000 0.000000 0.000000 0.000000
-35.730765 82.359845 341.800146 0.187217 0.064241 -45.923312 -0.084081 -0.179185 45.923075 -0.000000 0.000000 0.000000 0.570938 -0.626033 -0.031177 0.000000 0.000000 0.000000 -0.179121 0.845324 -0.162746 -1.541546 -0.259720 0.794287 -3.428470 3.524588 0.055750 3.764960 -2.771328 -0.146814 0.000000 0.000000 0.000000 0.000000 0.000000 0.000000 -0.000000 0.000000 0.000000 -0.000000 0.000000 0.000000 -0.141768 -1.120595 0.148797 0.144706 1.120219 -0.151599 0.000000 0.000000 0.000000 0.000000 0.000000 0.000000 -0.084081 -0.179185 45.923075 -0.000000 0.000000 0.000000 0.310186 -0.642560 -0.406614 0.000000 0.000000 0.000000 0.472306 -0.904962 46.002894 0.135607 0.904377 -0.075626 3.001248 0.877583 -1.629198 0.000000 0.000000 0.000000
-35.717202 82.371963 341.306525 0.337545 0.137460 -45.875266 -0.136337 -0.338000 45.874459 -0.000000 0.000000 0.000000 1.060537 -1.150008 -0.058136 0.000000 0.000000 0.000000 -0.339812 1.556831 -0.293610 -2.885932 -0.525475 1.443739 -6.268188 6.374558 0.282207 6.770436 -4.955286 -0.111701 0.000000 0.000000 0.000000 0.000000 0.000000 0.000000 0.351572 -1.181276 -0.034207 -0.352352 1.181043 0.041463 0.138344 -2.538760 0.274822 -0.577727 1.259033 -0.247248 0.000000 0.000000 0.000000 0.000000 0.000000 0.000000 0.530671 -0.936214 46.181804 -0.030221 0.895426 -0.299692 0.582795 -1.197519 -0.762673 0.000000 0.000000 0.000000 0.885795 -1.744490 46.034615 0.972295 2.715708 -0.206449 4.726970 0.292594 -2.872773 0.000000 0.000000 0.000000
-35.711763 82.389024 340.864706 0.451224 0.219684 -45.783719 -0.157227 -0.476596 45.782200 -0.000000 0.000000 0.000000 1.467011 -1.569679 -0.083278 0.000000 0.000000 0.000000 -0.483054 2.134096 -0.393442 -4.038247 -0.782362 1.961882 -8.362394 8.398244 0.510969 8.903213 -6.457203 -0.010195 0.000000 0.000000 0.000000 0.000000 0.000000 0.000000 0.626715 -1.611347 -0.025393 -0.617728 0.688726 -0.052624 0.900607 -3.311216 0.467577 -1.777734 2.212557 -0.235208 0.000000 0.000000 0.000000 0.000000 0.000000 0.000000 0.826497 -1.289509 46.216498 -0.093906 1.272588 -0.418094 0.818497 -1.662139 -1.068145 0.000000 0.000000 0.000000 1.239899 -2.520961 46.019977 1.487425 3.782004 -0.287118 6.197724 -0.063531 -3.895432 0.000000 0.000000 0.000000
-35.714447 82.411027 340.474688 0.528439 0.310954 -45.647816 -0.147079 -0.595236 45.645618 -0.000000 0.000000 0.000000 1.788959 -1.883365 -0.108604 0.000000 0.000000 0.000000 -0.609631 2.576968 -0.462990 -5.004869 -1.018388 2.361181 -9.629759 9.539074 0.605453 10.134810 -7.264414 0.068799 0.000000 0.000000 0.000000 0.000000 0.000000 0.000000 0.968395 -1.933716 0.000829 -1.120168 0.732932 -0.076932 2.343524 -4.948666 0.566466 -3.628568 3.325231 -0.066861 0.000000 0.000000 0.000000 0.000000 0.000000 0.000000 1.141337 -1.567884 46.187815 -0.190362 1.602872 -0.515213 1.017906 -2.034201 -1.323051 0.000000 0.000000 0.000000 1.534103 -3.236478 45.955476 2.019291 4.652746 -0.348446 7.082003 -0.707685 -4.654772 0.000000 0.000000 0.000000
